<mxfile host="www.draw.io" modified="2023-05-15T08:49:46.245Z" agent="Mozilla/5.0 (Windows NT 10.0; Win64; x64) AppleWebKit/537.36 (KHTML, like Gecko) Chrome/113.0.0.0 Safari/537.36 Edg/113.0.1774.42" etag="9jSsZU8MOsKZXXOhtB4n" version="21.3.0" type="device">
  <diagram name="Page-1" id="TE3pjqw1eLH-T9SaXUsJ">
    <mxGraphModel dx="836" dy="482" grid="1" gridSize="10" guides="1" tooltips="1" connect="1" arrows="1" fold="1" page="1" pageScale="1" pageWidth="827" pageHeight="1169" math="0" shadow="0">
      <root>
        <mxCell id="0" />
        <mxCell id="1" parent="0" />
        <mxCell id="aX-uRgR_mGVPDVHQNxIr-2" value="" style="rounded=0;whiteSpace=wrap;html=1;" vertex="1" parent="1">
          <mxGeometry x="330" y="690" width="310" height="550" as="geometry" />
        </mxCell>
        <mxCell id="aX-uRgR_mGVPDVHQNxIr-3" value="Swiat gry" style="text;html=1;strokeColor=none;fillColor=none;align=center;verticalAlign=middle;whiteSpace=wrap;rounded=0;" vertex="1" parent="1">
          <mxGeometry x="354" y="710" width="96" height="30" as="geometry" />
        </mxCell>
        <mxCell id="aX-uRgR_mGVPDVHQNxIr-4" value="" style="ellipse;whiteSpace=wrap;html=1;aspect=fixed;" vertex="1" parent="1">
          <mxGeometry x="500" y="710" width="30" height="30" as="geometry" />
        </mxCell>
        <mxCell id="aX-uRgR_mGVPDVHQNxIr-7" value="" style="line;strokeWidth=2;html=1;" vertex="1" parent="1">
          <mxGeometry x="505" y="720" width="20" height="10" as="geometry" />
        </mxCell>
        <mxCell id="aX-uRgR_mGVPDVHQNxIr-8" value="" style="line;strokeWidth=2;direction=south;html=1;" vertex="1" parent="1">
          <mxGeometry x="510" y="715" width="10" height="20" as="geometry" />
        </mxCell>
        <mxCell id="aX-uRgR_mGVPDVHQNxIr-9" value="Dukaty x1000" style="text;html=1;strokeColor=none;fillColor=none;align=center;verticalAlign=middle;whiteSpace=wrap;rounded=0;" vertex="1" parent="1">
          <mxGeometry x="340" y="780" width="130" height="30" as="geometry" />
        </mxCell>
        <mxCell id="aX-uRgR_mGVPDVHQNxIr-12" value="" style="rounded=0;whiteSpace=wrap;html=1;" vertex="1" parent="1">
          <mxGeometry x="490" y="785" width="60" height="20" as="geometry" />
        </mxCell>
        <mxCell id="aX-uRgR_mGVPDVHQNxIr-13" value="" style="rounded=0;whiteSpace=wrap;html=1;" vertex="1" parent="1">
          <mxGeometry x="560" y="785" width="60" height="20" as="geometry" />
        </mxCell>
        <mxCell id="aX-uRgR_mGVPDVHQNxIr-14" value="Jedzenie x500" style="text;html=1;strokeColor=none;fillColor=none;align=center;verticalAlign=middle;whiteSpace=wrap;rounded=0;" vertex="1" parent="1">
          <mxGeometry x="340" y="820" width="130" height="30" as="geometry" />
        </mxCell>
        <mxCell id="aX-uRgR_mGVPDVHQNxIr-15" value="" style="rounded=0;whiteSpace=wrap;html=1;" vertex="1" parent="1">
          <mxGeometry x="490" y="825" width="60" height="20" as="geometry" />
        </mxCell>
        <mxCell id="aX-uRgR_mGVPDVHQNxIr-16" value="" style="rounded=0;whiteSpace=wrap;html=1;" vertex="1" parent="1">
          <mxGeometry x="560" y="825" width="60" height="20" as="geometry" />
        </mxCell>
        <mxCell id="aX-uRgR_mGVPDVHQNxIr-20" value="Woda x800" style="text;html=1;strokeColor=none;fillColor=none;align=center;verticalAlign=middle;whiteSpace=wrap;rounded=0;" vertex="1" parent="1">
          <mxGeometry x="340" y="860" width="130" height="30" as="geometry" />
        </mxCell>
        <mxCell id="aX-uRgR_mGVPDVHQNxIr-21" value="" style="rounded=0;whiteSpace=wrap;html=1;" vertex="1" parent="1">
          <mxGeometry x="490" y="865" width="60" height="20" as="geometry" />
        </mxCell>
        <mxCell id="aX-uRgR_mGVPDVHQNxIr-22" value="" style="rounded=0;whiteSpace=wrap;html=1;" vertex="1" parent="1">
          <mxGeometry x="560" y="865" width="60" height="20" as="geometry" />
        </mxCell>
        <mxCell id="aX-uRgR_mGVPDVHQNxIr-23" value="Zelazo x252" style="text;html=1;strokeColor=none;fillColor=none;align=center;verticalAlign=middle;whiteSpace=wrap;rounded=0;" vertex="1" parent="1">
          <mxGeometry x="340" y="900" width="130" height="30" as="geometry" />
        </mxCell>
        <mxCell id="aX-uRgR_mGVPDVHQNxIr-24" value="" style="rounded=0;whiteSpace=wrap;html=1;" vertex="1" parent="1">
          <mxGeometry x="490" y="905" width="60" height="20" as="geometry" />
        </mxCell>
        <mxCell id="aX-uRgR_mGVPDVHQNxIr-25" value="" style="rounded=0;whiteSpace=wrap;html=1;" vertex="1" parent="1">
          <mxGeometry x="560" y="905" width="60" height="20" as="geometry" />
        </mxCell>
        <mxCell id="aX-uRgR_mGVPDVHQNxIr-26" value="&lt;font style=&quot;font-size: 10px;&quot;&gt;Edytuj&lt;/font&gt;" style="text;html=1;strokeColor=none;fillColor=none;align=center;verticalAlign=middle;whiteSpace=wrap;rounded=0;" vertex="1" parent="1">
          <mxGeometry x="490" y="780" width="60" height="30" as="geometry" />
        </mxCell>
        <mxCell id="aX-uRgR_mGVPDVHQNxIr-27" value="&lt;font style=&quot;font-size: 10px;&quot;&gt;Edytuj&lt;/font&gt;" style="text;html=1;strokeColor=none;fillColor=none;align=center;verticalAlign=middle;whiteSpace=wrap;rounded=0;" vertex="1" parent="1">
          <mxGeometry x="490" y="820" width="60" height="30" as="geometry" />
        </mxCell>
        <mxCell id="aX-uRgR_mGVPDVHQNxIr-28" value="&lt;font style=&quot;font-size: 10px;&quot;&gt;Usuń&lt;/font&gt;" style="text;html=1;strokeColor=none;fillColor=none;align=center;verticalAlign=middle;whiteSpace=wrap;rounded=0;" vertex="1" parent="1">
          <mxGeometry x="560" y="780" width="60" height="30" as="geometry" />
        </mxCell>
        <mxCell id="aX-uRgR_mGVPDVHQNxIr-29" value="&lt;font style=&quot;font-size: 10px;&quot;&gt;Usuń&lt;/font&gt;" style="text;html=1;strokeColor=none;fillColor=none;align=center;verticalAlign=middle;whiteSpace=wrap;rounded=0;" vertex="1" parent="1">
          <mxGeometry x="560" y="820" width="60" height="30" as="geometry" />
        </mxCell>
        <mxCell id="aX-uRgR_mGVPDVHQNxIr-30" value="&lt;font style=&quot;font-size: 10px;&quot;&gt;Edytuj&lt;/font&gt;" style="text;html=1;strokeColor=none;fillColor=none;align=center;verticalAlign=middle;whiteSpace=wrap;rounded=0;" vertex="1" parent="1">
          <mxGeometry x="490" y="860" width="60" height="30" as="geometry" />
        </mxCell>
        <mxCell id="aX-uRgR_mGVPDVHQNxIr-31" value="&lt;font style=&quot;font-size: 10px;&quot;&gt;Usuń&lt;/font&gt;" style="text;html=1;strokeColor=none;fillColor=none;align=center;verticalAlign=middle;whiteSpace=wrap;rounded=0;" vertex="1" parent="1">
          <mxGeometry x="560" y="860" width="60" height="30" as="geometry" />
        </mxCell>
        <mxCell id="aX-uRgR_mGVPDVHQNxIr-32" value="&lt;font style=&quot;font-size: 10px;&quot;&gt;Edytuj&lt;/font&gt;" style="text;html=1;strokeColor=none;fillColor=none;align=center;verticalAlign=middle;whiteSpace=wrap;rounded=0;" vertex="1" parent="1">
          <mxGeometry x="490" y="900" width="60" height="30" as="geometry" />
        </mxCell>
        <mxCell id="aX-uRgR_mGVPDVHQNxIr-33" value="&lt;font style=&quot;font-size: 10px;&quot;&gt;Usuń&lt;/font&gt;" style="text;html=1;strokeColor=none;fillColor=none;align=center;verticalAlign=middle;whiteSpace=wrap;rounded=0;" vertex="1" parent="1">
          <mxGeometry x="560" y="900" width="60" height="30" as="geometry" />
        </mxCell>
      </root>
    </mxGraphModel>
  </diagram>
</mxfile>
